<svg width="16" height="16" viewBox="0 0 16 16" fill="none" xmlns="http://www.w3.org/2000/svg">
<g clip-path="url(#clip0_2097_599)">
<path d="M4.6665 6.66699V14.667" stroke="#6A7282" stroke-width="1.33333" stroke-linecap="round" stroke-linejoin="round"/>
<path d="M10.0002 3.91967L9.3335 6.66634H13.2202C13.4272 6.66634 13.6313 6.71453 13.8164 6.8071C14.0016 6.89968 14.1626 7.03408 14.2868 7.19967C14.411 7.36527 14.495 7.55751 14.532 7.76116C14.569 7.96482 14.5581 8.17429 14.5002 8.37301L12.9468 13.7063C12.8661 13.9833 12.6976 14.2266 12.4668 14.3997C12.236 14.5728 11.9553 14.6663 11.6668 14.6663H2.66683C2.31321 14.6663 1.97407 14.5259 1.72402 14.2758C1.47397 14.0258 1.3335 13.6866 1.3335 13.333V7.99967C1.3335 7.64605 1.47397 7.30691 1.72402 7.05687C1.97407 6.80682 2.31321 6.66634 2.66683 6.66634H4.50683C4.75489 6.66621 4.99799 6.59688 5.2088 6.46615C5.41961 6.33543 5.58978 6.14848 5.70016 5.92634L8.00016 1.33301C8.31455 1.3369 8.62399 1.41179 8.90537 1.55207C9.18674 1.69236 9.43278 1.89441 9.6251 2.14314C9.81742 2.39187 9.95104 2.68085 10.016 2.98848C10.0809 3.2961 10.0755 3.61443 10.0002 3.91967Z" stroke="#6A7282" stroke-width="1.33333" stroke-linecap="round" stroke-linejoin="round"/>
</g>
<defs>
<clipPath id="clip0_2097_599">
<rect width="16" height="16" fill="white"/>
</clipPath>
</defs>
</svg>
