<svg width="30" height="22" viewBox="0 0 30 22" fill="none" xmlns="http://www.w3.org/2000/svg">
<path d="M21.9977 20H10.6643C8.93347 19.9995 7.23684 19.5178 5.76402 18.6086C4.2912 17.6994 3.10021 16.3986 2.32414 14.8515C1.54808 13.3044 1.21751 11.5719 1.36937 9.84774C1.52124 8.12357 2.14955 6.47559 3.18411 5.08796C4.21867 3.70032 5.61871 2.6277 7.22778 1.98996C8.83686 1.35222 10.5916 1.17448 12.2959 1.4766C14.0001 1.77872 15.5868 2.5488 16.8786 3.70079C18.1704 4.85278 19.1165 6.34129 19.611 7.99998H21.9977C23.5889 7.99998 25.1151 8.63212 26.2403 9.75734C27.3655 10.8826 27.9977 12.4087 27.9977 14C27.9977 15.5913 27.3655 17.1174 26.2403 18.2426C25.1151 19.3678 23.5889 20 21.9977 20Z" stroke="white" stroke-width="2.66667" stroke-linecap="round" stroke-linejoin="round"/>
</svg>
