<svg width="17" height="18" viewBox="0 0 17 18" fill="none" xmlns="http://www.w3.org/2000/svg">
<path d="M10.8333 16.6662V9.99956C10.8333 9.77855 10.7455 9.56659 10.5892 9.41031C10.4329 9.25403 10.2209 9.16623 9.99992 9.16623H6.66659C6.44557 9.16623 6.23361 9.25403 6.07733 9.41031C5.92105 9.56659 5.83325 9.77855 5.83325 9.99956V16.6662" stroke="black" stroke-width="1.66667" stroke-linecap="round" stroke-linejoin="round"/>
<path d="M0.833252 7.49958C0.833194 7.25713 0.88603 7.0176 0.988075 6.79767C1.09012 6.57775 1.23892 6.38274 1.42409 6.22624L7.25742 1.22708C7.55824 0.972834 7.93938 0.833344 8.33325 0.833344C8.72712 0.833344 9.10826 0.972834 9.40909 1.22708L15.2424 6.22624C15.4276 6.38274 15.5764 6.57775 15.6784 6.79767C15.7805 7.0176 15.8333 7.25713 15.8333 7.49958V14.9996C15.8333 15.4416 15.6577 15.8655 15.3451 16.1781C15.0325 16.4906 14.6086 16.6662 14.1666 16.6662H2.49992C2.05789 16.6662 1.63397 16.4906 1.32141 16.1781C1.00885 15.8655 0.833252 15.4416 0.833252 14.9996V7.49958Z" stroke="black" stroke-width="1.66667" stroke-linecap="round" stroke-linejoin="round"/>
</svg>
