<svg width="16" height="16" viewBox="0 0 16 16" fill="none" xmlns="http://www.w3.org/2000/svg">
<path d="M9.66659 2.66663H6.33325L4.66659 4.66663H2.66659C2.31296 4.66663 1.97382 4.8071 1.72378 5.05715C1.47373 5.3072 1.33325 5.64634 1.33325 5.99996V12C1.33325 12.3536 1.47373 12.6927 1.72378 12.9428C1.97382 13.1928 2.31296 13.3333 2.66659 13.3333H13.3333C13.6869 13.3333 14.026 13.1928 14.2761 12.9428C14.5261 12.6927 14.6666 12.3536 14.6666 12V5.99996C14.6666 5.64634 14.5261 5.3072 14.2761 5.05715C14.026 4.8071 13.6869 4.66663 13.3333 4.66663H11.3333L9.66659 2.66663Z" stroke="white" stroke-width="1.33333" stroke-linecap="round" stroke-linejoin="round"/>
<path d="M8 10.6666C9.10457 10.6666 10 9.7712 10 8.66663C10 7.56206 9.10457 6.66663 8 6.66663C6.89543 6.66663 6 7.56206 6 8.66663C6 9.7712 6.89543 10.6666 8 10.6666Z" stroke="white" stroke-width="1.33333" stroke-linecap="round" stroke-linejoin="round"/>
</svg>
