<svg width="18" height="18" viewBox="0 0 18 18" fill="none" xmlns="http://www.w3.org/2000/svg">
<path d="M8.33325 1.6636H2.49992C2.05789 1.6636 1.63397 1.8392 1.32141 2.15176C1.00885 2.46432 0.833252 2.88824 0.833252 3.33027V14.9969C0.833252 15.439 1.00885 15.8629 1.32141 16.1754C1.63397 16.488 2.05789 16.6636 2.49992 16.6636H14.1666C14.6086 16.6636 15.0325 16.488 15.3451 16.1754C15.6577 15.8629 15.8333 15.439 15.8333 14.9969V9.1636" stroke="black" stroke-width="1.66667" stroke-linecap="round" stroke-linejoin="round"/>
<path d="M13.6457 1.35111C13.9773 1.01959 14.4269 0.833344 14.8957 0.833344C15.3646 0.833344 15.8142 1.01959 16.1457 1.35111C16.4773 1.68263 16.6635 2.13227 16.6635 2.60111C16.6635 3.06995 16.4773 3.51959 16.1457 3.85111L8.63492 11.3628C8.43704 11.5605 8.19259 11.7052 7.92408 11.7836L5.52992 12.4836C5.45821 12.5045 5.3822 12.5058 5.30984 12.4872C5.23748 12.4687 5.17144 12.4311 5.11862 12.3782C5.0658 12.3254 5.02816 12.2594 5.00962 12.187C4.99108 12.1147 4.99233 12.0387 5.01325 11.9669L5.71325 9.57278C5.79202 9.30449 5.93703 9.06033 6.13492 8.86278L13.6457 1.35111Z" stroke="black" stroke-width="1.66667" stroke-linecap="round" stroke-linejoin="round"/>
</svg>
