<svg width="19" height="17" viewBox="0 0 19 17" fill="none" xmlns="http://www.w3.org/2000/svg">
<path d="M9.1665 4.16666V15.8333" stroke="black" stroke-width="1.66667" stroke-linecap="round" stroke-linejoin="round"/>
<path d="M1.66659 13.3333C1.44557 13.3333 1.23361 13.2455 1.07733 13.0893C0.921049 12.933 0.833252 12.721 0.833252 12.5V1.66668C0.833252 1.44566 0.921049 1.2337 1.07733 1.07742C1.23361 0.921141 1.44557 0.833344 1.66659 0.833344H5.83325C6.71731 0.833344 7.56515 1.18453 8.19027 1.80965C8.8154 2.43478 9.16658 3.28262 9.16658 4.16668C9.16658 3.28262 9.51777 2.43478 10.1429 1.80965C10.768 1.18453 11.6159 0.833344 12.4999 0.833344H16.6666C16.8876 0.833344 17.0996 0.921141 17.2558 1.07742C17.4121 1.2337 17.4999 1.44566 17.4999 1.66668V12.5C17.4999 12.721 17.4121 12.933 17.2558 13.0893C17.0996 13.2455 16.8876 13.3333 16.6666 13.3333H11.6666C11.0035 13.3333 10.3677 13.5967 9.89882 14.0656C9.42998 14.5344 9.16658 15.1703 9.16658 15.8333C9.16658 15.1703 8.90319 14.5344 8.43435 14.0656C7.96551 13.5967 7.32963 13.3333 6.66658 13.3333H1.66659Z" stroke="black" stroke-width="1.66667" stroke-linecap="round" stroke-linejoin="round"/>
</svg>
